<?xml version="1.0" encoding="UTF-8" standalone="no"?>
<svg
   xmlns:dc="http://purl.org/dc/elements/1.1/"
   xmlns:cc="http://creativecommons.org/ns#"
   xmlns:rdf="http://www.w3.org/1999/02/22-rdf-syntax-ns#"
   xmlns:svg="http://www.w3.org/2000/svg"
   xmlns="http://www.w3.org/2000/svg"
   xmlns:sodipodi="http://sodipodi.sourceforge.net/DTD/sodipodi-0.dtd"
   xmlns:inkscape="http://www.inkscape.org/namespaces/inkscape"
   id="Layer_1"
   style="enable-background:new 0 0 100.353 100.352;"
   version="1.1"
   viewBox="0 0 100.353 100.352"
   xml:space="preserve"
   sodipodi:docname="lightbulb_on.svg"
   inkscape:version="0.92.2 (5c3e80d, 2017-08-06)"><metadata
     id="metadata9"><rdf:RDF><cc:Work
         rdf:about=""><dc:format>image/svg+xml</dc:format><dc:type
           rdf:resource="http://purl.org/dc/dcmitype/StillImage" /><dc:title></dc:title></cc:Work></rdf:RDF></metadata><defs
     id="defs7"><filter
       inkscape:collect="always"
       style="color-interpolation-filters:sRGB"
       id="filter3726"
       x="-0.15042057"
       width="1.3008411"
       y="-0.09981395"
       height="1.1996279"><feGaussianBlur
         inkscape:collect="always"
         stdDeviation="3.6217811"
         id="feGaussianBlur3728" /></filter></defs><sodipodi:namedview
     pagecolor="#ffffff"
     bordercolor="#666666"
     borderopacity="1"
     objecttolerance="10"
     gridtolerance="10"
     guidetolerance="10"
     inkscape:pageopacity="0"
     inkscape:pageshadow="2"
     inkscape:window-width="1366"
     inkscape:window-height="705"
     id="namedview5"
     showgrid="false"
     inkscape:zoom="2.351722"
     inkscape:cx="10.418398"
     inkscape:cy="50.175999"
     inkscape:window-x="-8"
     inkscape:window-y="-8"
     inkscape:window-maximized="1"
     inkscape:current-layer="Layer_1" /><path
     d="M69.294,11.442c-6.788-5.594-15.724-7.82-24.512-6.109C32.951,7.636,23.449,17.623,21.675,29.62  c-1.447,9.79,2.031,19.567,9.304,26.155c3.277,2.968,5.254,7.243,5.568,12.039c0.006,0.087,0.023,0.171,0.042,0.254v15.039  c0,0.828,0.671,1.5,1.5,1.5h1.495c0.609,4.359,3.813,7.697,7.672,7.697h6.81c3.859,0,7.062-3.338,7.671-7.697h1.495  c0.828,0,1.5-0.672,1.5-1.5V67.828c0-0.003,0.001-0.006,0.001-0.01c0-4.462,2.026-8.771,5.706-12.133  c6.062-5.538,9.538-13.415,9.538-21.61C79.978,25.287,76.084,17.037,69.294,11.442z M45.357,39.91h-2.305  c-1.271,0-2.305-1.034-2.305-2.305s1.034-2.305,2.305-2.305s2.305,1.034,2.305,2.305V39.91z M55.966,37.605  c0-1.271,1.034-2.305,2.306-2.305c1.271,0,2.305,1.034,2.305,2.305s-1.034,2.305-2.305,2.305h-2.303L55.966,37.605z M55.063,69.211  h6.67v12.396H60.36c-0.003,0-0.006-0.001-0.01-0.001s-0.006,0.001-0.01,0.001H40.982c-0.003,0-0.006-0.001-0.01-0.001  s-0.006,0.001-0.01,0.001H39.59V69.211h14.366 M48.357,66.211V42.91h4.617l0.034,23.301H48.357z M54.066,89.304h-6.81  c-2.238,0-4.117-2.004-4.637-4.697h16.083C58.183,87.3,56.304,89.304,54.066,89.304z M68.416,53.471  c-3.872,3.537-6.164,8.013-6.593,12.74h-5.816L55.974,42.91h2.298c2.925,0,5.305-2.38,5.305-5.305c0-2.925-2.38-5.305-5.305-5.305  c-2.926,0-5.306,2.38-5.306,5.307l0.003,2.303h-4.612v-2.305c0-2.925-2.38-5.305-5.305-5.305c-2.925,0-5.305,2.38-5.305,5.305  c0,2.925,2.38,5.305,5.305,5.305h2.305v23.301h-5.972c-0.636-5.005-2.864-9.465-6.393-12.66c-6.528-5.914-9.65-14.696-8.35-23.493  c1.591-10.76,10.108-19.716,20.712-21.781c7.908-1.538,15.938,0.458,22.03,5.48c6.096,5.023,9.592,12.429,9.592,20.319  C76.978,41.43,73.857,48.5,68.416,53.471z"
     id="path2"
     style="fill:#ffff00" /><path
     style="fill:#ffff00;fill-opacity:1;stroke-width:4.25220346;stroke-miterlimit:4;stroke-dasharray:none"
     d="M 39.541889,65.845368 C 39.441868,65.669964 39.22368,64.761056 39.057028,63.825571 38.47902,60.580991 36.361462,56.976973 32.696631,53.000372 25.920172,45.647434 23.448727,38.163213 24.967802,29.595335 26.797754,19.274054 35.002449,10.67025 45.043708,8.5428591 58.045227,5.7882922 71.339799,13.337166 75.417739,25.789726 c 0.866067,2.644667 1.037376,4.010404 1.037376,8.270422 0,8.291465 -1.928141,12.768223 -8.548064,19.846925 -3.446819,3.685691 -5.463488,7.221764 -5.943246,10.421019 l -0.275354,1.836191 H 58.9728 56.257149 V 54.683334 43.202385 l 1.381966,-6.8e-4 c 1.773653,-8.5e-4 4.068449,-1.17429 5.130402,-2.623428 1.738349,-2.372124 0.630224,-6.4946 -2.093135,-7.786919 -3.820775,-1.813077 -7.815574,0.844575 -7.819406,5.202078 l -0.0016,1.807187 h -2.126101 -2.126102 v -1.601211 c 0,-6.143795 -8.180894,-8.283094 -10.495084,-2.744457 -1.572745,3.764109 1.411368,7.74743 5.804003,7.74743 h 1.289319 v 11.480949 11.480949 h -2.738837 c -1.506361,0 -2.820673,-0.143512 -2.920695,-0.318915 z"
     id="path3708"
     inkscape:connector-curvature="0" /><path
     style="fill:#ffff00;fill-opacity:1;stroke-width:4.25220346;stroke-miterlimit:4;stroke-dasharray:none"
     d="m 44.530558,91.516706 c -1.708766,-0.766409 -3.756946,-3.282348 -4.388711,-5.39099 -0.392346,-1.309539 -0.71297,-1.676959 -1.463367,-1.676959 -1.870315,0 -1.981466,-0.53713 -1.981466,-9.575324 0,-11.94324 -0.620587,-13.857199 -6.547173,-20.192216 -5.872193,-6.276878 -8.463701,-12.574115 -8.486205,-20.621069 -0.01444,-5.163346 0.783609,-8.500456 3.176144,-13.281325 3.276301,-6.546848 9.270804,-11.7505429 16.484588,-14.3099039 3.382958,-1.2002319 4.089065,-1.2989487 9.192307,-1.2851258 4.825698,0.013071 5.959966,0.1587218 8.929627,1.1466482 14.757671,4.9094815 23.16565,20.0297235 19.376499,34.8451585 -1.437861,5.621989 -3.710473,9.455168 -8.766942,14.787061 -1.443546,1.522182 -3.177025,3.818372 -3.852169,5.102643 l -1.227534,2.335047 -0.213605,9.992678 c -0.117484,5.495972 -0.368411,10.231864 -0.557617,10.524203 -0.189206,0.292339 -0.817095,0.531525 -1.395311,0.531525 -0.630867,0 -1.142517,0.297591 -1.27939,0.744136 -0.715801,2.335284 -2.010925,4.421866 -3.405603,5.486788 -1.525619,1.164904 -1.786489,1.21445 -6.935313,1.317213 -3.832519,0.07649 -5.721277,-0.05971 -6.658759,-0.480188 z M 56.1302,88.718173 c 1.264693,-0.771124 2.678271,-2.788931 2.678271,-3.823079 0,-0.295975 -2.721722,-0.446337 -8.079186,-0.446337 -7.688272,0 -8.079186,0.03959 -8.079186,0.817814 0,0.998226 1.941845,3.382296 3.15447,3.872855 0.486818,0.196937 2.70294,0.369483 4.924716,0.383434 3.28837,0.02062 4.292751,-0.128999 5.400915,-0.804687 z M 61.785013,75.51913 V 69.140825 H 50.516675 39.248336 v 6.094824 c 0,3.352156 0.127566,6.222393 0.28348,6.378305 0.155914,0.155915 5.226667,0.283481 11.268339,0.283481 h 10.984858 z m -16.257951,-20.942101 0.113032,-11.799864 -1.813913,-0.0026 c -0.997652,-0.0014 -2.38796,-0.299358 -3.089574,-0.662039 -1.198983,-0.619784 -1.23284,-0.616057 -0.563276,0.06199 0.405345,0.410479 1.642427,0.810773 2.870238,0.92875 l 2.157852,0.207342 v 11.426849 11.426848 h -1.435119 c -3.260522,0 -4.055866,-0.401293 -4.529006,-2.285121 -0.520513,-2.072443 -2.129259,-5.752649 -2.657358,-6.079031 -0.203931,-0.126039 0.02692,0.550405 0.513002,1.503205 0.486083,0.9528 1.160026,2.792919 1.497652,4.089153 0.337625,1.296233 0.735876,2.554205 0.885001,2.795496 0.155755,0.252015 1.476999,0.385556 3.104788,0.313808 l 2.83365,-0.1249 z m 7.653966,0 0.113032,-11.799864 h -2.558049 -2.558048 v 11.622688 c 0,6.392481 0.136162,11.758851 0.302582,11.92527 0.16642,0.166422 1.266677,0.246151 2.445016,0.177176 l 2.142436,-0.125406 z m 9.116559,9.886373 c 0.176363,-1.052421 0.951902,-3.190216 1.723422,-4.75066 0.771524,-1.560443 1.249484,-2.742437 1.062141,-2.626649 -0.680051,0.420292 -2.941129,5.391232 -3.232431,7.106443 l -0.298762,1.759137 -2.647404,0.126596 -2.647404,0.126593 V 54.703626 43.202385 h 1.516226 c 0.833924,0 1.934182,-0.214729 2.445017,-0.477176 1.455878,-0.747973 3.267664,-2.591459 3.265912,-3.323056 -8.5e-4,-0.366171 -0.374296,-0.05332 -0.831635,0.696741 -1.044711,1.713382 -2.881612,2.678271 -5.098742,2.678271 h -1.721998 v 11.622688 c 0,6.392481 0.135403,11.758094 0.300896,11.923586 0.165493,0.165491 1.548117,0.24522 3.072499,0.177176 l 2.771602,-0.123722 z M 36.271794,57.07411 c 0,-0.0883 -0.334861,-0.423158 -0.744136,-0.744136 -0.674423,-0.528918 -0.689463,-0.513878 -0.160544,0.160547 0.555495,0.70831 0.90468,0.933562 0.90468,0.583589 z M 73.867526,46.617057 C 79.343262,36.19671 77.565148,23.737146 69.440995,15.5996 58.768815,4.9098207 42.620067,4.8978891 31.973395,15.571917 c -5.193948,5.207293 -7.60777,11.073309 -7.60777,18.488231 0,7.335992 2.330447,13.050084 7.494054,18.374893 l 3.211099,3.311344 -2.447685,-2.976542 C 27.095752,46.04824 25.233498,41.891871 24.899003,35.530427 24.488387,27.721315 27.048718,21.274009 32.829597,15.559972 37.930713,10.517838 43.275568,8.3343184 50.516675,8.3343184 c 4.55511,0 7.814655,0.764519 11.949559,2.8027416 6.042971,2.978768 10.98637,8.828916 12.895975,15.261431 0.874946,2.947267 0.964451,3.944042 0.779846,8.684678 -0.308999,7.934978 -1.53536,10.800189 -7.782259,18.182149 l -2.819254,3.331508 3.389312,-3.516623 c 2.107235,-2.186386 3.975015,-4.631211 4.937672,-6.463146 z M 38.736511,40.245181 c -0.285468,-0.457106 -0.601381,-0.748754 -0.702029,-0.648106 -0.182247,0.182248 0.744447,1.479209 1.056913,1.479209 0.09028,0 -0.06942,-0.373996 -0.354884,-0.831103 z m 6.808049,-1.8023 c 0.231344,-2.783215 -2.335971,-4.303392 -4.170122,-2.469241 -1.881906,1.881906 -0.211295,4.386491 2.763932,4.143694 1.140965,-0.09311 1.289443,-0.269913 1.40619,-1.674453 z m 7.566852,-0.55575 0.04342,-2.126101 -0.173019,2.019796 -0.173019,2.019797 h -2.102803 -2.102804 v -1.832219 c 0,-1.020211 -0.293071,-2.198027 -0.661288,-2.657627 -0.638801,-0.79734 -0.646031,-0.793824 -0.21261,0.103383 0.246773,0.510835 0.448678,1.81199 0.448678,2.891457 v 1.962666 l 2.445017,-0.127525 2.445017,-0.127525 z m 6.174219,1.885694 c 1.8871,-1.009945 1.661153,-3.991691 -0.340547,-4.494086 -0.586983,-0.147323 -1.426799,0.03478 -2.053202,0.445218 -0.868532,0.569084 -1.059953,1.038303 -1.059953,2.598197 0,1.840801 0.04306,1.903689 1.303615,1.903689 0.716989,0 1.684528,-0.203858 2.150087,-0.453018 z M 38.749847,34.814029 c 0.65207,-1.192152 1.937819,-1.902398 4.112862,-2.271942 l 1.700881,-0.288984 -1.488271,-0.04695 c -0.818549,-0.02582 -1.960901,0.192198 -2.538559,0.484497 -1.596237,0.807705 -2.997742,3.165973 -2.936082,4.940453 l 0.05322,1.531693 0.288983,-1.700881 c 0.158941,-0.935485 0.522074,-2.127032 0.806963,-2.647882 z m 25.02652,2.780763 c -0.135739,-0.339212 -0.236499,-0.238453 -0.256901,0.256904 -0.01846,0.448253 0.08203,0.699399 0.223334,0.558102 0.141297,-0.141297 0.1564,-0.50805 0.03355,-0.815006 z m -7.939742,-4.387513 c 2.061085,-1.065829 4.014327,-0.814086 5.792495,0.746564 1.260822,1.106588 1.473086,1.192197 1.065242,0.429622 -0.698315,-1.305686 -2.654972,-2.236808 -4.700419,-2.236808 -1.303207,0 -2.062889,0.312298 -3.210269,1.31971 -0.826687,0.725841 -1.503067,1.533814 -1.503067,1.795496 0,0.261681 0.298639,0.04942 0.663643,-0.471699 0.365004,-0.521116 1.216573,-1.233414 1.892375,-1.582885 z m -9.997374,-0.210182 c -0.14454,-0.233871 -0.490694,-0.42229 -0.769231,-0.418708 -0.304294,0.0039 -0.251847,0.171035 0.131401,0.418708 0.8169,0.527922 0.964104,0.527922 0.63783,0 z"
     id="path3710"
     inkscape:connector-curvature="0" /><path
     style="fill:#ffff00;fill-opacity:1;stroke-width:4.25220346;stroke-miterlimit:4;stroke-dasharray:none"
     d="m 56.257149,38.210454 c 0,-0.902828 0.229619,-1.871125 0.510264,-2.15177 0.78117,-0.781169 2.245628,-0.608435 3.130407,0.369235 0.726371,0.802631 0.740255,0.979161 0.158849,2.019796 -0.482717,0.863999 -1.020222,1.172275 -2.218303,1.272271 -1.574532,0.131416 -1.581217,0.125034 -1.581217,-1.509532 z"
     id="path3712"
     inkscape:connector-curvature="0" /><path
     style="fill:#ffff00;fill-opacity:1;stroke-width:4.25220346;stroke-miterlimit:4;stroke-dasharray:none"
     d="m 41.575395,38.937306 c -1.741065,-1.923856 1.099203,-4.579303 2.934736,-2.743769 0.380209,0.380209 0.69129,1.347343 0.69129,2.149187 0,1.369823 -0.08593,1.457899 -1.422368,1.457899 -0.889412,0 -1.715113,-0.323482 -2.203658,-0.863317 z"
     id="path3714"
     inkscape:connector-curvature="0" /><path
     style="fill:#ffff00;fill-opacity:1;stroke-width:4.25220346;stroke-miterlimit:4;stroke-dasharray:none"
     d="M 48.603183,54.683334 V 43.202385 h 2.126102 2.126101 v 11.480949 11.480949 h -2.126101 -2.126102 z"
     id="path3716"
     inkscape:connector-curvature="0" /><path
     style="fill:#ffff00;fill-opacity:1;stroke-width:4.25220346;stroke-miterlimit:4;stroke-dasharray:none"
     d="m 44.555684,91.527268 c -1.770769,-0.795192 -3.891773,-3.323701 -4.505033,-5.370579 -0.39034,-1.302837 -0.727712,-1.707932 -1.422409,-1.707932 -1.798959,0 -1.931228,-0.613431 -1.931228,-8.956633 0,-12.251205 -0.640455,-14.268786 -6.61272,-20.831616 -5.931527,-6.518062 -8.423047,-12.601122 -8.437566,-20.60036 -0.0095,-5.258997 0.587716,-7.858684 2.930751,-12.75661 C 30.22788,9.4918302 43.390305,2.9376611 56.234274,5.5401821 c 10.30668,2.0884008 18.029327,8.7011289 21.868025,18.7250969 1.25164,3.268401 1.308276,3.693168 1.305899,9.794869 -0.0021,5.950384 -0.08208,6.58705 -1.188959,9.489715 -1.74143,4.566709 -3.604971,7.485225 -7.49703,11.741183 -1.90972,2.088274 -3.98383,4.767162 -4.609137,5.953085 -1.116748,2.117963 -1.140709,2.333507 -1.350521,12.148898 -0.117484,5.495972 -0.368411,10.231864 -0.557617,10.524203 -0.189206,0.292339 -0.817095,0.531525 -1.395311,0.531525 -0.630867,0 -1.142517,0.297591 -1.27939,0.744136 -0.715801,2.335284 -2.010925,4.421866 -3.405603,5.486788 -1.525619,1.164904 -1.786489,1.21445 -6.935313,1.317213 -3.78865,0.07562 -5.724675,-0.06144 -6.633633,-0.469626 z m 11.01246,-2.564912 c 1.474285,-0.615995 3.494047,-3.333842 3.03251,-4.080623 -0.351272,-0.56837 -15.379514,-0.587709 -15.730227,-0.02024 -0.596242,0.96474 1.738726,3.980811 3.394044,4.384077 1.915634,0.466683 7.948446,0.283039 9.303673,-0.28321 z M 61.785013,75.51913 V 69.140825 H 50.516675 39.248336 v 5.705696 c 0,3.138134 0.116147,6.008372 0.258104,6.378305 0.226162,0.589368 1.620706,0.672609 11.268339,0.672609 H 61.785013 Z M 40.451624,65.877702 c -0.447646,-0.11845 -1.030008,-1.239926 -1.575252,-3.033522 -0.475777,-1.565075 -1.15986,-3.22829 -1.520184,-3.696032 -0.465215,-0.603903 -0.41793,-0.295728 0.163109,1.06305 0.450034,1.052421 1.045889,2.8224 1.324122,3.933288 0.41306,1.649209 0.672156,2.010748 1.412143,1.970471 0.666229,-0.03627 0.718158,-0.0991 0.196062,-0.237255 z m 5.075662,-22.897217 c -0.06229,-0.05173 -1.134039,-0.187787 -2.381663,-0.302341 -1.317665,-0.120985 -2.030544,-0.0575 -1.700882,0.15147 0.31214,0.197862 1.285086,0.362679 2.162103,0.36626 l 1.594577,0.0065 0.09918,11.587254 0.09918,11.587254 0.12038,-11.651173 c 0.06621,-6.408147 0.06941,-11.693501 0.0071,-11.745235 z m 5.201999,0.2219 h 2.112433 l 0.120264,11.587254 0.120263,11.587254 0.09918,-11.799864 0.09918,-11.799864 h -2.551322 -2.551322 l 0.09918,11.799864 0.09918,11.799864 0.120263,-11.587254 0.120263,-11.587254 z m 7.129229,-0.115865 1.587788,-0.166393 -1.807187,-0.07148 -1.807186,-0.07148 0.09918,11.799864 0.09918,11.799864 0.120217,-11.561991 0.120218,-11.561989 z m 6.062883,16.593438 c 0.522392,-1.075046 0.612224,-1.473163 0.221693,-0.982467 -0.87606,1.100746 -2.365132,5.135385 -2.330092,6.313386 0.01539,0.517438 0.29846,-0.06366 0.629042,-1.291326 0.330582,-1.227666 0.99629,-3.045483 1.479357,-4.039593 z M 32.342615,52.450927 C 29.449576,49.063129 27.077823,45.166328 25.986442,42.007705 24.678019,38.22093 24.583445,30.22729 25.804374,26.618793 c 1.491406,-4.407901 3.349382,-7.351547 6.847017,-10.847925 3.695682,-3.694353 7.00572,-5.654144 11.470012,-6.7911034 3.244906,-0.8264083 9.533623,-0.8283451 12.790543,-0.00395 8.864912,2.2439244 16.433681,9.5586724 18.698975,18.0714024 0.783685,2.945004 0.799159,9.96271 0.03002,13.603835 -0.321126,1.520163 -0.526189,2.825958 -0.4557,2.901768 0.07049,0.07581 0.467776,-0.976611 0.882864,-2.338712 C 77.214516,37.452146 77.153356,30.25123 75.94232,26.406182 72.516082,15.527847 62.312487,7.8557148 51.154505,7.7681071 44.842501,7.7185479 40.294246,9.154352 35.161967,12.81667 27.923188,17.982156 24.051344,26.142446 24.477225,35.335809 c 0.31096,6.712581 2.362981,11.581424 7.123727,16.902508 2.738024,3.06029 3.314613,3.225577 0.741663,0.21261 z m 41.029652,-5.11853 c 0.877017,-1.42081 1.594577,-2.776535 1.594577,-3.012721 0,-0.236187 -0.68259,0.707408 -1.516868,2.096877 -0.834278,1.389467 -2.223243,3.387378 -3.086593,4.439798 -2.564865,3.126556 -2.886404,3.775166 -0.662727,1.336855 1.142367,-1.252631 2.794594,-3.439995 3.671611,-4.860809 z M 60.718952,42.356815 c 0.148972,-0.24104 -0.02171,-0.312327 -0.400125,-0.167116 -0.736659,0.282683 -0.871441,0.587466 -0.25979,0.587466 0.220069,0 0.517031,-0.189158 0.659915,-0.42035 z m 2.379899,-2.202305 c 0.645641,-1.206395 0.226893,-0.922724 -0.88993,0.602858 -0.626033,0.855163 -0.728713,1.152157 -0.269361,0.779108 0.408279,-0.331572 0.92996,-0.953457 1.159291,-1.381966 z M 45.116377,39.715579 c 1.088097,-1.088098 0.132536,-4.032314 -1.436522,-4.426122 -2.056755,-0.516213 -3.961073,1.965531 -2.686578,3.501203 1.086271,1.308877 3.253072,1.794947 4.1231,0.924919 z m 8.029377,-0.552787 c 0.06701,-0.662471 0.03753,-0.685967 -0.133352,-0.106305 -0.170037,0.576781 -0.685018,0.744136 -2.289847,0.744136 h -2.070473 l -0.162771,-1.807187 -0.16277,-1.807186 -0.07429,2.041017 -0.07429,2.041016 2.440884,-0.127525 c 2.080015,-0.108671 2.453603,-0.253258 2.526907,-0.977966 z m 6.76371,0.181121 c 1.357369,-1.126516 0.19019,-4.220714 -1.592117,-4.220714 -1.254581,0 -2.485418,1.544246 -2.485418,3.118282 0,0.779571 0.143512,1.561791 0.318915,1.738267 0.424655,0.427251 3.003294,-0.009 3.75862,-0.635835 z M 37.842129,36.938478 c -0.107813,-0.413726 -0.203112,-0.178181 -0.211778,0.523433 -0.0087,0.701613 0.07954,1.040116 0.196021,0.752228 0.116478,-0.287888 0.123568,-0.861935 0.01575,-1.275661 z m 2.950492,-3.845111 c 0.670806,-0.260584 1.602345,-0.557999 2.070088,-0.660923 0.743925,-0.163697 0.727966,-0.193313 -0.127422,-0.236461 -1.848162,-0.09323 -4.766365,2.084754 -4.761023,3.553356 8.93e-4,0.240301 0.360942,-0.152385 0.80015,-0.872636 0.439209,-0.720251 1.347402,-1.522752 2.018207,-1.783336 z m 13.976257,0.754171 c 0.423301,-0.467742 0.673964,-0.850441 0.557028,-0.850441 -0.116936,0 -0.558947,0.382699 -0.982248,0.850441 -0.423301,0.467742 -0.673964,0.850441 -0.557028,0.850441 0.116935,0 0.558947,-0.382699 0.982248,-0.850441 z m 6.778492,-0.624307 c -0.453974,-0.343369 -1.005492,-0.630393 -1.225595,-0.637831 -0.220103,-0.0074 -0.02875,0.267415 0.42522,0.610784 0.453975,0.343369 1.005492,0.630393 1.225596,0.637831 0.220103,0.0074 0.02875,-0.267415 -0.425221,-0.610784 z m -1.923893,-0.922469 c 0.398865,-0.346929 -2.775957,-0.111058 -3.344228,0.248458 -0.398338,0.252008 0.05205,0.304119 1.275661,0.147595 1.040265,-0.133071 1.97112,-0.311295 2.068567,-0.396053 z"
     id="path3718"
     inkscape:connector-curvature="0" /><path
     style="fill:#ffff00;fill-opacity:1;stroke-width:4.25220346;stroke-miterlimit:4;stroke-dasharray:none"
     d="m 44.13837,91.307263 c -1.863495,-1.157373 -3.020406,-2.558316 -3.995844,-4.838709 -0.58268,-1.362198 -1.118082,-2.019797 -1.644476,-2.019797 -1.640735,0 -1.800921,-0.753154 -1.804248,-8.483145 -0.0054,-12.429986 -0.732984,-14.760223 -6.657878,-21.321764 -2.714195,-3.00584 -4.06899,-4.951342 -5.45058,-7.82709 -2.336282,-4.862919 -2.938351,-7.461686 -2.955383,-12.75661 -0.01678,-5.216308 0.583748,-7.815338 2.947518,-12.75661 6.785155,-14.1838199 24.170492,-20.37132365 38.336282,-13.64402 6.135814,2.913884 10.998017,7.659681 13.924231,13.590865 2.000325,4.054488 2.793706,7.692319 2.793706,12.809765 0,8.596656 -2.264498,13.948741 -9.079764,21.45982 -1.796862,1.980311 -3.786936,4.659199 -4.422394,5.953085 -1.131056,2.303001 -1.159847,2.55838 -1.367984,12.132586 -0.116936,5.379037 -0.367416,10.019254 -0.556622,10.311593 -0.189206,0.292339 -0.785093,0.531525 -1.324195,0.531525 -0.771223,0 -1.137345,0.411511 -1.717369,1.930284 -0.942866,2.468863 -2.578925,4.407353 -4.341184,5.143669 -0.906818,0.378892 -3.125376,0.57946 -6.398159,0.578423 -4.145629,-0.0013 -5.230084,-0.138282 -6.285657,-0.79387 z m 12.745747,-3.446215 c 1.642776,-1.592242 2.110784,-2.824543 1.204755,-3.17222 -1.001452,-0.384293 -14.317708,-0.263815 -14.947347,0.135233 -0.473817,0.300295 -0.460425,0.577321 0.07827,1.619035 1.339155,2.589638 2.891557,3.141613 8.279978,2.944025 3.805102,-0.139523 4.015242,-0.199083 5.384347,-1.526073 z M 61.785013,75.51913 V 69.140825 H 50.516675 39.248336 v 4.836882 c 0,5.688108 0.270508,7.383793 1.218152,7.636008 0.382437,0.10179 5.335556,0.207266 11.006932,0.234395 l 10.311593,0.04932 z M 40.009237,65.56934 c -0.30156,-0.32722 -0.615289,-0.5313 -0.697176,-0.45351 -0.252218,0.239595 0.38701,1.048453 0.828576,1.048453 0.229289,0 0.170159,-0.267723 -0.1314,-0.594943 z m 22.491471,-2.886548 c -0.135742,-0.339211 -0.236501,-0.238455 -0.256904,0.256905 -0.01846,0.44825 0.08204,0.699398 0.223334,0.558102 0.141297,-0.141301 0.156403,-0.508054 0.03357,-0.815007 z M 38.395884,61.609187 c -0.463323,-0.722573 -0.475322,-0.721646 -0.242705,0.01875 0.134594,0.428401 0.259823,1.002448 0.278286,1.275661 0.02423,0.358529 0.09176,0.353307 0.242705,-0.01875 0.115025,-0.283529 -0.0102,-0.857576 -0.278286,-1.275661 z M 50.726066,43.202385 h 2.10597 l 0.130626,6.05939 0.130625,6.05939 0.09366,-6.272 0.09366,-6.272 h -2.551322 -2.551322 l 0.09739,9.248542 0.09738,9.248542 0.123682,-9.035932 0.123681,-9.035932 z m 6.921429,-0.118242 c 1.342077,-0.166956 1.337008,-0.172437 -0.22099,-0.238927 l -1.594576,-0.06805 0.09738,9.248542 0.09739,9.248542 0.123605,-9.009615 0.123605,-9.009616 z m -12.20825,0.243228 C 45.310579,42.992072 44.600068,42.805085 43.62019,42.848646 l -1.607922,0.07148 1.594576,0.166797 1.594577,0.166799 0.09403,6.671553 0.09403,6.67155 0.130453,-6.359625 c 0.07175,-3.497793 0.03544,-6.607216 -0.08068,-6.90983 z m -13.306988,8.910946 c -2.383273,-2.886957 -4.267822,-5.751281 -5.465192,-8.306545 -0.571544,-1.219712 -0.915529,-1.739285 -0.764411,-1.154607 0.549479,2.125948 2.697499,5.804755 5.027709,8.610712 1.310976,1.57863 2.492877,2.870237 2.626447,2.870237 0.133569,0 -0.507479,-0.908909 -1.424553,-2.019797 z m 41.689762,-5.618096 c 0.656633,-1.178196 1.105351,-2.142175 0.99715,-2.142175 -0.108206,0 -0.718078,0.908909 -1.355279,2.019797 -0.637202,1.110888 -1.913807,2.976542 -2.836905,4.145898 l -1.678361,2.126102 1.839754,-2.003724 c 1.011867,-1.102047 2.377003,-2.967702 3.033641,-4.145898 z M 76.793841,34.485369 C 76.822722,32.146657 76.59505,29.180745 76.287905,27.894454 74.147797,18.931858 66.18652,10.897925 57.10759,8.5390966 53.971865,7.7243932 45.386722,7.8343285 43.500539,8.713339 l -1.063051,0.4954093 1.063051,-0.261641 c 0.584678,-0.1439027 3.171532,-0.3630363 5.748563,-0.4869634 5.536638,-0.2662519 8.522299,0.3393987 13.376926,2.7135511 6.246843,3.055014 11.754785,10.047035 13.209149,16.768264 0.500506,2.313048 0.379012,11.125064 -0.186948,13.559545 -0.135926,0.584678 0.05442,0.20198 0.422984,-0.850441 0.41749,-1.192115 0.689916,-3.516548 0.722628,-6.165694 z m -51.287302,6.085966 c -0.135741,-0.339213 -0.2365,-0.238454 -0.256904,0.256904 -0.01846,0.448252 0.08204,0.699398 0.223334,0.558101 0.141297,-0.141297 0.156404,-0.50805 0.03357,-0.815005 z m 37.183154,0.186033 c 0.528921,-0.674423 0.513881,-0.689463 -0.160544,-0.160544 -0.409275,0.320975 -0.744136,0.655836 -0.744136,0.744136 0,0.349971 0.349185,0.124718 0.90468,-0.583592 z M 43.075319,39.481047 c -1.733905,-0.866183 -2.227219,-2.496119 -1.022162,-3.377278 0.417718,-0.305442 0.535976,-0.55535 0.262796,-0.55535 -0.27318,0 -0.801724,0.465542 -1.174544,1.034537 -0.805666,1.229602 -0.282763,2.6102 1.217572,3.214699 1.68933,0.680646 2.232262,0.440681 0.716338,-0.316608 z m 7.147579,0.436535 C 48.820487,39.769875 48.6354,39.60778 48.483763,38.394487 48.320386,37.087266 48.31153,37.096086 48.246014,38.631267 l -0.06805,1.594576 1.807186,-0.07148 1.807187,-0.07148 z m 9.754929,-0.862812 c 0.768782,-1.001398 0.654245,-2.10797 -0.318915,-3.08113 -0.951669,-0.951669 -1.922671,-1.09839 -2.379317,-0.359521 -0.191954,0.310589 -0.116204,0.375225 0.206215,0.175959 0.715769,-0.44237 2.598322,0.892338 2.598322,1.84218 0,1.033676 -0.766477,1.626276 -2.338712,1.808171 -1.263801,0.146211 -1.274628,0.129795 -1.164561,-1.765908 0.0805,-1.386459 -0.0055,-1.737814 -0.312404,-1.275661 -0.494875,0.745322 -0.577535,3.119014 -0.124393,3.572155 0.499498,0.499499 3.251887,-0.158304 3.833765,-0.916245 z M 25.07246,38.418657 c -0.117961,-0.292339 -0.214475,-0.05315 -0.214475,0.531525 0,0.584678 0.09651,0.823864 0.214475,0.531525 0.117961,-0.292339 0.117961,-0.770711 0,-1.06305 z m 20.554181,-0.07406 c 0,-1.027753 -1.623772,-3.440251 -2.037232,-3.026791 -0.131669,0.131668 0.119765,0.502022 0.558741,0.823009 0.521409,0.381264 0.798138,1.107377 0.798138,2.094244 0,0.830846 0.15308,1.416022 0.340177,1.300389 0.187097,-0.115632 0.340176,-0.651515 0.340176,-1.190851 z M 24.677522,32.476812 c -0.08983,-1.000134 -0.164583,-0.287633 -0.166128,1.583336 -0.0015,1.87097 0.07195,2.689262 0.16332,1.818427 0.09137,-0.870836 0.09263,-2.401629 0.0028,-3.401763 z m 16.661481,0.223762 c 0.09745,-0.07078 -0.02487,-0.128697 -0.271808,-0.128697 -0.246941,0 -0.900717,0.394055 -1.452836,0.875678 l -1.003854,0.875678 1.275661,-0.746981 c 0.701614,-0.410839 1.35539,-0.804894 1.452837,-0.875678 z m 17.363163,-0.421812 c -0.409275,-0.106955 -1.078997,-0.106955 -1.488271,0 -0.409275,0.106955 -0.07441,0.194463 0.744135,0.194463 0.81855,0 1.153411,-0.08751 0.744136,-0.194463 z M 25.07246,28.638589 c -0.117961,-0.292339 -0.214475,-0.05315 -0.214475,0.531525 0,0.584678 0.09651,0.823865 0.214475,0.531526 0.117961,-0.292339 0.117961,-0.770712 0,-1.063051 z m 3.337358,-7.807964 c 1.215471,-2.075527 5.662404,-6.827165 8.074586,-8.627859 l 1.275661,-0.952281 -1.45037,0.774323 c -2.834794,1.513441 -7.155549,6.369842 -8.959233,10.069916 -0.927932,1.90356 -1.79437,4.035065 -1.925417,4.736679 -0.131047,0.701613 0.213056,0.106104 0.764674,-1.323354 0.551617,-1.429459 1.550661,-3.5343 2.220099,-4.677424 z M 42.038102,9.2814623 c -0.20073,-0.20073 -4.065427,1.4688497 -4.065427,1.7562967 0,0.109966 0.952468,-0.202467 2.116595,-0.694297 1.164128,-0.4918295 2.041102,-0.9697295 1.948832,-1.0619997 z"
     id="path3720"
     inkscape:connector-curvature="0" /><path
     style="fill:#ffff00;fill-opacity:1;stroke-width:4.25220346;stroke-miterlimit:4;stroke-dasharray:none"
     d="m 44.13837,91.307263 c -1.863495,-1.157373 -3.020406,-2.558316 -3.995844,-4.838709 -0.58268,-1.362198 -1.118082,-2.019797 -1.644476,-2.019797 -1.627229,0 -1.800739,-0.772681 -1.809459,-8.057925 C 36.673662,63.917372 35.790697,61.081203 29.864351,54.470724 22.988762,46.801423 20.29349,38.052078 21.964538,28.826488 23.329409,21.291254 28.311101,13.866062 34.880955,9.5746202 39.293486,6.692346 43.529328,5.343853 49.028404,5.070737 c 5.791582,-0.2876437 9.594317,0.5014214 14.798509,3.0706808 6.675236,3.2955012 11.799626,9.1139002 14.462862,16.4216032 1.042895,2.861621 1.13663,3.644824 1.13663,9.497127 0,5.852304 -0.09374,6.635506 -1.13663,9.497128 -1.534059,4.209331 -3.377908,7.149683 -6.999306,11.161645 -6.151675,6.815129 -6.522573,7.974467 -6.526451,20.400022 -0.0026,8.263204 -0.173278,9.102874 -1.91204,9.405316 -0.529843,0.09216 -1.220204,0.940719 -1.845407,2.268279 -2.149601,4.564489 -3.637355,5.310797 -10.582544,5.308595 -4.145629,-0.0013 -5.230084,-0.138282 -6.285657,-0.79387 z m 12.118779,-2.976525 c 0.584678,-0.4265 1.350075,-1.287878 1.700881,-1.914172 0.566961,-1.012194 0.566961,-1.185773 0,-1.562234 -0.697125,-0.462886 -14.624691,-0.383123 -15.092363,0.08643 -0.350347,0.351759 0.777254,2.570886 1.692169,3.330198 1.759725,1.46044 9.723406,1.50113 11.699313,0.05977 z M 61.785013,75.51913 V 69.140825 H 50.516675 39.248336 v 3.551998 c 0,1.953598 0.121889,4.718172 0.270866,6.143498 l 0.270865,2.591501 1.536321,0.163327 c 0.844976,0.08983 5.793839,0.195491 10.997473,0.234807 l 9.461152,0.07148 z M 50.721856,43.202385 h 2.094674 l 0.148755,2.870238 0.148754,2.870237 0.08328,-3.082848 0.08328,-3.082847 h -2.551322 -2.551322 l 0.09327,6.05939 0.09327,6.059389 0.131339,-5.846779 0.131339,-5.84678 z m 6.503856,-0.126677 c 0.795751,-0.153881 0.76032,-0.19187 -0.224427,-0.240636 l -1.169356,-0.05791 0.09327,6.05939 0.09327,6.059389 0.131156,-5.818753 c 0.126807,-5.625761 0.162498,-5.824815 1.076086,-6.001483 z M 31.257563,51.175266 C 30.09656,49.713572 28.455807,47.27387 27.611444,45.753707 26.767082,44.233545 26.07405,43.15434 26.071373,43.355474 c -0.01699,1.27627 6.215347,10.47742 7.096804,10.47742 0.110165,0 -0.749611,-1.195933 -1.910614,-2.657628 z m 39.511318,-0.21261 C 71.2978,50.288231 71.28276,50.273191 70.608335,50.80211 70.199061,51.123088 69.8642,51.457949 69.8642,51.546246 c 0,0.349973 0.349186,0.124721 0.904681,-0.58359 z M 45.447347,43.348485 c -0.12058,-0.314226 -0.751451,-0.54265 -1.401937,-0.507608 l -1.182701,0.06371 1.169356,0.177143 c 1.15761,0.175363 1.170204,0.212096 1.253846,3.656966 l 0.08449,3.479824 0.148091,-3.149361 c 0.08145,-1.732145 0.04943,-3.40645 -0.07115,-3.720675 z m 26.597195,5.91329 c 0.528919,-0.674425 0.513879,-0.689465 -0.160546,-0.160546 -0.409274,0.320977 -0.744135,0.655838 -0.744135,0.744135 0,0.349974 0.349186,0.124722 0.904681,-0.583589 z m 4.523545,-15.414237 c 0.0013,-6.24899 -0.227467,-5.233061 -0.430803,1.913492 -0.08651,3.040325 -0.02517,4.953816 0.13627,4.252203 0.161452,-0.701614 0.293993,-3.476176 0.294533,-6.165695 z m -26.98201,6.081639 C 49.049,39.824803 48.579003,39.354806 48.474628,38.817729 c -0.14888,-0.76609 -0.191087,-0.723884 -0.238758,0.238758 -0.05046,1.018933 0.09252,1.161907 1.111449,1.111449 0.962642,-0.04767 1.004848,-0.08988 0.238758,-0.238759 z m 9.085716,-0.122748 c 0.779499,-0.009 1.837559,-1.254066 1.837559,-2.162281 0,-0.926436 -1.4258,-2.52792 -2.232406,-2.507478 -0.292339,0.0074 -0.0053,0.406067 0.63783,0.885907 1.955529,1.458986 1.376197,3.149597 -1.174407,3.427163 -1.222218,0.133007 -1.268613,0.07586 -1.218187,-1.500521 0.03389,-1.059471 -0.07655,-1.435265 -0.312404,-1.063051 -0.446746,0.705023 -0.490996,2.659568 -0.06975,3.080817 0.169457,0.169456 0.695667,0.203961 1.169356,0.07668 0.473689,-0.127284 1.086772,-0.234039 1.362406,-0.237232 z M 42.319492,39.138681 c -1.041748,-0.729669 -1.23904,-2.240052 -0.413529,-3.165795 0.452184,-0.507086 0.420447,-0.512009 -0.21261,-0.03298 -1.391412,1.052875 -0.719551,3.860715 0.923794,3.860715 0.452248,0 0.362524,-0.199536 -0.297655,-0.661942 z m 2.806041,-2.161843 c -0.309069,-0.634156 -0.848967,-1.226083 -1.199773,-1.315395 -0.471216,-0.119966 -0.452127,-0.0442 0.07308,0.29005 0.390998,0.248838 0.850245,1.073178 1.020548,1.831866 0.170303,0.758688 0.390293,1.147021 0.488867,0.862961 0.09857,-0.28406 -0.07365,-1.035327 -0.382717,-1.669482 z M 24.660298,33.536716 c -0.107812,-0.413726 -0.203111,-0.178181 -0.211777,0.523432 -0.0087,0.701614 0.07954,1.040116 0.196021,0.752229 0.116478,-0.287889 0.123568,-0.861936 0.01576,-1.275661 z m 51.438601,-6.173788 c -0.11796,-0.292339 -0.214477,-0.05315 -0.214477,0.531526 0,0.584677 0.09652,0.823864 0.214477,0.531525 0.11796,-0.292339 0.11796,-0.770712 0,-1.063051 z m -1.080149,-3.15726 c -0.501267,-0.862013 -0.622314,-0.586105 -0.211985,0.483194 0.145825,0.380021 0.354715,0.601372 0.464196,0.491891 0.109482,-0.109481 -0.0038,-0.548269 -0.252211,-0.975085 z M 32.190788,16.039214 35.15464,12.799132 32.393746,15.46922 c -2.577895,2.493108 -5.085538,5.993847 -5.702193,7.96042 -0.146669,0.467742 0.363792,-0.274736 1.134356,-1.649952 0.770565,-1.375216 2.734761,-3.958429 4.364879,-5.740474 z m 41.075174,4.626494 c -0.250327,-0.467742 -0.550817,-0.850441 -0.667753,-0.850441 -0.116936,0 -0.0078,0.382699 0.242533,0.850441 0.250327,0.467742 0.550818,0.850441 0.667753,0.850441 0.116936,0 0.0078,-0.382699 -0.242533,-0.850441 z m -0.85044,-1.436205 c 0,-0.0883 -0.334861,-0.423161 -0.744136,-0.744136 -0.674425,-0.528919 -0.689465,-0.513879 -0.160546,0.160544 0.555495,0.70831 0.904682,0.933563 0.904682,0.583592 z m -2.976543,-3.453829 c -1.032873,-1.05242 -1.973626,-1.913491 -2.090561,-1.913491 -0.116936,0 0.632468,0.861071 1.665341,1.913491 1.032873,1.05242 1.973626,1.913492 2.090562,1.913492 0.116935,0 -0.632469,-0.861072 -1.665342,-1.913492 z m -2.551322,-2.074035 c 0,-0.0883 -0.334861,-0.423161 -0.744135,-0.744136 -0.674425,-0.528919 -0.689465,-0.513879 -0.160546,0.160544 0.555495,0.70831 0.904681,0.933562 0.904681,0.583592 z m -2.976542,-2.169526 c 0,-0.290948 -2.989631,-1.76089 -4.252203,-2.0907241 -0.584678,-0.1527413 0.08504,0.2846578 1.488271,0.9719981 3.000163,1.469563 2.763932,1.373948 2.763932,1.118726 z M 39.897418,10.117322 c -0.13092,-0.1309201 -0.474033,-2.7e-4 -0.762474,0.290333 -0.41683,0.419955 -0.367987,0.468797 0.238036,0.238037 0.419361,-0.159684 0.655358,-0.39745 0.524438,-0.52837 z M 57.74542,8.7595388 C 57.277678,8.558543 56.512281,8.3997165 56.044539,8.4065911 c -0.683663,0.010048 -0.641968,0.079264 0.21261,0.3529477 1.453901,0.4656205 2.571828,0.4656205 1.488271,0 z M 45.511477,8.5026348 c -0.141297,-0.1412972 -0.50805,-0.1564037 -0.815006,-0.03357 -0.339212,0.1357415 -0.238453,0.2365002 0.256905,0.2569039 0.448252,0.018464 0.699398,-0.082037 0.558101,-0.2233339 z m 7.251859,-0.4802879 c -1.103049,-0.087275 -3.01654,-0.088181 -4.252204,-0.00201 -1.235663,0.086166 -0.333169,0.1575722 2.005543,0.1586794 2.338711,0.00111 3.349709,-0.069394 2.246661,-0.1566681 z"
     id="path3722"
     inkscape:connector-curvature="0" /><path
     style="fill:#ffff00;fill-opacity:1;stroke-width:4.25220346;stroke-miterlimit:4;stroke-dasharray:none;filter:url(#filter3726)"
     d="m 44.56359,91.607656 c -1.618314,-0.892852 -3.272706,-2.70242 -4.285785,-4.687769 -0.583285,-1.143078 -1.51883,-2.233615 -2.192757,-2.556034 l -1.175424,-0.562345 -0.273149,-8.92492 C 36.260419,62.589273 35.803679,61.28283 29.279484,53.832894 c -3.169254,-3.618953 -5.76313,-8.274477 -6.870566,-12.33139 -1.047246,-3.836419 -1.05184,-11.627123 -0.0089,-15.095322 1.444064,-4.802106 4.023014,-9.090707 7.696275,-12.798333 5.594794,-5.6471337 11.139085,-8.1469981 18.973449,-8.5549336 5.718636,-0.2977695 9.677899,0.5279544 14.761556,3.0785953 6.488126,3.2553103 11.397112,8.6723633 14.197894,15.6673393 1.362334,3.402444 1.384373,3.566638 1.377229,10.261298 -0.0067,6.283961 -0.09119,7.022442 -1.106287,9.67017 -1.564798,4.081532 -3.490128,7.070971 -7.27791,11.300323 -1.818735,2.030759 -3.914595,4.913787 -4.657463,6.406731 l -1.350674,2.714445 -0.145171,8.979114 c -0.07985,4.938513 -0.239076,9.421952 -0.353838,9.963197 -0.126019,0.594301 -0.682823,1.149371 -1.405779,1.401395 -0.836799,0.291709 -1.491566,1.045982 -2.175401,2.505998 -1.110351,2.370645 -2.635977,3.987907 -4.385514,4.648929 -1.576527,0.595653 -10.887859,0.562405 -11.984793,-0.04279 z m 11.693559,-3.307189 c 1.294159,-0.907191 2.442913,-2.826168 1.973124,-3.296074 -0.457929,-0.458048 -9.929671,-0.722076 -12.843484,-0.358019 -1.825701,0.228105 -2.31147,0.448046 -2.31147,1.046548 0,1.01731 1.814711,2.920392 3.046605,3.19497 3.326319,0.741405 8.682421,0.430973 10.135225,-0.587425 z M 61.785013,75.51913 V 69.140825 H 50.516675 39.248336 v 2.27339 c 0,1.25036 0.123753,4.016822 0.275006,6.147686 l 0.275005,3.874302 2.807842,0.14733 c 1.544313,0.08103 6.491313,0.184814 10.993333,0.230618 l 8.185491,0.08328 z M 32.870031,53.247127 c 0,-0.0883 -0.334861,-0.423158 -0.744136,-0.744136 -0.674423,-0.528918 -0.689463,-0.513878 -0.160544,0.160547 0.555495,0.70831 0.90468,0.933562 0.90468,0.583589 z M 30.50249,50.218521 c -0.624338,-0.818549 -1.231553,-1.488271 -1.349367,-1.488271 -0.210209,0 0.308104,0.755552 1.531438,2.232406 1.116831,1.34828 0.976534,0.774875 -0.182071,-0.744135 z m 26.51494,-7.15135 c 0.52826,-0.138854 0.465499,-0.204887 -0.228755,-0.24068 -0.932691,-0.04809 -0.954548,0.04957 -0.869306,3.883962 l 0.08744,3.933288 0.141316,-3.692608 c 0.116866,-3.053741 0.267267,-3.725715 0.869305,-3.883962 z m -6.29789,0.135214 c 2.030223,0 2.086226,0.03435 2.253464,1.381966 0.168853,1.360631 0.172552,1.357348 0.239552,-0.21261 l 0.06805,-1.594576 h -2.551322 -2.551322 l 0.08655,3.720678 0.08655,3.720678 0.143256,-3.508068 0.143255,-3.508068 z m -23.247852,2.344052 c -0.388939,-0.815613 -0.782651,-1.407442 -0.874915,-1.315177 -0.194522,0.194522 1.096302,2.798108 1.387265,2.798108 0.107145,0 -0.123412,-0.667319 -0.51235,-1.482931 z m 18.030474,-1.169738 c -0.101709,-0.528937 -0.188788,-0.196307 -0.193508,0.739178 -0.0047,0.935485 0.0785,1.368251 0.184927,0.961703 0.10643,-0.406547 0.110291,-1.171944 0.0086,-1.700881 z m -0.841125,-1.431218 c -0.141298,-0.141297 -0.50805,-0.156403 -0.815006,-0.03357 -0.339213,0.135741 -0.238454,0.2365 0.256904,0.256904 0.448253,0.01846 0.699398,-0.08204 0.558102,-0.223334 z m 4.473672,-3.001253 c -0.292339,-0.117962 -0.531526,-0.517445 -0.531526,-0.887741 0,-0.370296 -0.119313,-0.553952 -0.265141,-0.408124 -0.414824,0.414824 0.176985,1.581267 0.783321,1.54391 0.426769,-0.02629 0.429661,-0.08006 0.01335,-0.248045 z m -7.056537,-0.921223 c -0.836108,-0.92389 -0.909475,-2.223336 -0.172209,-3.050119 0.452184,-0.507086 0.420447,-0.512009 -0.21261,-0.03298 -1.331947,1.007878 -0.684249,3.727603 0.916345,3.847784 0.09471,0.0071 -0.144472,-0.336997 -0.531526,-0.764687 z m 14.391587,-0.670048 c 0,-0.796217 -0.143512,-1.358972 -0.318915,-1.250567 -0.175403,0.108406 -0.318915,0.759856 -0.318915,1.447667 0,0.687811 0.143512,1.250566 0.318915,1.250566 0.175403,0 0.318915,-0.65145 0.318915,-1.447666 z m 3.261976,0.743931 c 0.42769,-0.387054 0.774796,-1.008938 0.771349,-1.381966 -0.004,-0.429636 -0.20004,-0.295319 -0.534926,0.366451 -0.290762,0.574575 -1.0055,1.177386 -1.588308,1.33958 -0.803355,0.223572 -0.862054,0.305149 -0.242692,0.337284 0.449328,0.02331 1.166887,-0.274295 1.594577,-0.661349 z m 16.824259,-7.056536 c -0.08589,-1.227824 -0.156175,-0.223241 -0.156175,2.232406 0,2.455648 0.07028,3.460231 0.156175,2.232407 0.08589,-1.227824 0.08589,-3.23699 0,-4.464813 z m -16.471862,4.637022 c 0,-0.08069 -0.430536,-0.511224 -0.956746,-0.956745 l -0.956745,-0.81004 0.810039,0.956746 c 0.761237,0.899105 1.103452,1.150323 1.103452,0.810039 z M 27.767387,21.941369 c 0.250328,-0.467742 0.359468,-0.850441 0.242532,-0.850441 -0.116935,0 -0.417424,0.382699 -0.667752,0.850441 -0.250328,0.467742 -0.359468,0.850441 -0.242532,0.850441 0.116935,0 0.417424,-0.382699 0.667752,-0.850441 z m 1.483474,-2.391067 c 0.401962,-0.613473 0.520673,-0.985514 0.263801,-0.826758 -0.490873,0.303375 -1.480905,1.942164 -1.17331,1.942164 0.09827,0 0.507546,-0.501933 0.909509,-1.115406 z m 2.98134,-3.562018 c 1.151772,-1.169356 1.998457,-2.126101 1.881521,-2.126101 -0.116935,0 -1.154969,0.956745 -2.306742,2.126101 -1.151772,1.169356 -1.998457,2.126102 -1.881521,2.126102 0.116935,0 1.154969,-0.956746 2.306742,-2.126102 z m 38.482439,1.146465 c 0,-0.07106 -0.717559,-0.788617 -1.594576,-1.594576 l -1.594576,-1.46538 1.465381,1.594576 c 1.363941,1.484197 1.723771,1.790087 1.723771,1.46538 z m -6.803525,-5.600358 c 0,-0.257908 -2.398514,-1.504987 -2.849121,-1.481368 -0.187017,0.0098 0.329691,0.384481 1.14824,0.832617 1.675993,0.917568 1.700881,0.927061 1.700881,0.648751 z"
     id="path3724"
     inkscape:connector-curvature="0" /></svg>